<?xml version="1.0" encoding="UTF-8" standalone="no"?>
<!-- Created with Inkscape (http://www.inkscape.org/) -->
<svg xmlns:svg="http://www.w3.org/2000/svg" xmlns="http://www.w3.org/2000/svg" version="1.0" width="430" height="430" id="svg23695">
  <defs id="defs23697"/>
  <g id="layer1">
    <path d="M 738 411 A 182 187 0 1 1  374,411 A 182 187 0 1 1  738 411 z" transform="matrix(1.1043956,0,0,1.0748663,-399.04395,-226.77005)" style="opacity:1;fill:#ffffff;fill-opacity:1;fill-rule:nonzero;stroke:#587390;stroke-width:25.69913483;stroke-linecap:butt;stroke-linejoin:miter;stroke-miterlimit:4;stroke-dasharray:none;stroke-dashoffset:0;stroke-opacity:1" id="path2252"/>
    <path d="M 723,312.5 A 218,74.5 0 0 1 673.32812,359.84054 L 505,312.5 z" transform="matrix(0.9844037,0,0,-1.5592984,-389.52387,679.28072)" style="opacity:1;fill:#516b86;fill-opacity:1;fill-rule:nonzero;stroke:#ffffff;stroke-width:1.61427975;stroke-linecap:butt;stroke-linejoin:miter;stroke-miterlimit:4;stroke-dasharray:none;stroke-dashoffset:0;stroke-opacity:1" id="path9060"/>
    <rect width="27" height="60.600002" rx="13.5" ry="4.500001" x="201.19995" y="115.40003" style="opacity:1;fill:#587390;fill-opacity:1;fill-rule:nonzero;stroke:#ffffff;stroke-width:2;stroke-linecap:butt;stroke-linejoin:miter;stroke-miterlimit:4;stroke-dasharray:none;stroke-dashoffset:0;stroke-opacity:1" id="rect11973"/>
    <path d="M 563.35998 316.60999 A 9.1899996 3.51 0 1 1  544.97998,316.60999 A 9.1899996 3.51 0 1 1  563.35998 316.60999 z" transform="matrix(1.4689881,0,0,1.3133903,-599.36913,-295.86249)" style="opacity:1;fill:#587390;fill-opacity:1;fill-rule:nonzero;stroke:#ffffff;stroke-width:1.43987226;stroke-linecap:butt;stroke-linejoin:miter;stroke-miterlimit:4;stroke-dasharray:none;stroke-dashoffset:0;stroke-opacity:1" id="path12950"/>
    <path d="M 662.8 437.89999 A 114.8 25.1 0 1 1  433.2,437.89999 A 114.8 25.1 0 1 1  662.8 437.89999 z" transform="matrix(1.0540069,0,0,2.4900398,-362.39582,-823.88841)" style="opacity:1;fill:#516b86;fill-opacity:1;fill-rule:nonzero;stroke:none;stroke-width:1.23453987;stroke-linecap:butt;stroke-linejoin:miter;stroke-miterlimit:4;stroke-dasharray:none;stroke-dashoffset:0;stroke-opacity:1" id="path6139"/>
    <rect width="214" height="18" x="108.19994" y="257" style="opacity:1;fill:#516b86;fill-opacity:1;fill-rule:nonzero;stroke:#ffffff;stroke-width:2;stroke-linecap:butt;stroke-linejoin:miter;stroke-miterlimit:4;stroke-dasharray:none;stroke-dashoffset:0;stroke-opacity:1" id="rect7110"/>
    <rect width="214" height="20" x="108.19994" y="192" style="opacity:1;fill:#516b86;fill-opacity:1;fill-rule:nonzero;stroke:#ffffff;stroke-width:2;stroke-linecap:butt;stroke-linejoin:miter;stroke-miterlimit:4;stroke-dasharray:none;stroke-dashoffset:0;stroke-opacity:1" id="rect7112"/>
    <path d="M 215.11294,79.950002 C 196.61636,100.40421 203.177,112.43856 215.71284,120.1 C 238.4093,100.61075 213.19335,90.434542 215.11294,79.950002 z " style="fill:#587390;fill-opacity:1;fill-rule:evenodd;stroke:#ffffff;stroke-width:1px;stroke-linecap:butt;stroke-linejoin:miter;stroke-opacity:1" id="path16830"/>
    <rect width="213.99998" height="44.400002" x="108.19994" y="212.60004" style="opacity:1;fill:#516b86;fill-opacity:1;fill-rule:nonzero;stroke:#ffffff;stroke-width:2;stroke-linecap:butt;stroke-linejoin:miter;stroke-miterlimit:4;stroke-dasharray:none;stroke-dashoffset:0;stroke-opacity:1" id="rect21711"/>
  </g>
</svg>