<svg xmlns="http://www.w3.org/2000/svg" xml:space="preserve" viewBox="0 0 694.23028 668.61352"><ellipse cx="345.14294" cy="336.23645" fill="#fff" rx="347.11496" ry="334.30695" transform="matrix(.99998446 -.00557409 .00588146 .9999827 0 0)"/><path fill="#343436" d="M452.39858 432.682208c40.9212-18.72294 81.49739-37.28496 122.62748-56.10035.1235 1.9701.28571 3.36888.2875 4.76783.019 15.33925-.10557 30.68014.10599 46.01653.0468 3.38616-1.09849 4.91513-4.10873 6.36309-83.04621 39.94615-166.03833 80.0026-249.03868 120.04236-7.40739 3.57339-14.91272 6.96584-22.17909 10.80182-5.31562 2.80615-10.77999 4.25201-16.79261 4.54451-35.29508 1.71694-70.365526.87892-104.652148-8.82498-14.332373-4.05649-28.049991-9.67582-39.452562-19.43989-5.033067-4.30984-9.50414-9.43955-13.465862-14.75594-4.8698108-6.53496-6.94409434-13.96961-6.92029566-22.43303.23258264-82.69807.14069104-165.39699.14107488-248.09568.0000202-1.98235-.00001011-3.96469-.00001011-6.20511 14.08714389-2.17687 27.86220689-4.30554 42.00394089-6.49087v8.85262c-9.646124 1.52772-19.242166 3.04752-29.712426 4.70576 1.590321 2.77682 2.767888 5.24581 4.312754 7.46377 10.395227 14.92413 25.341811 23.61777 42.136469 29.51496 29.833923 10.47569 60.815055 12.02239 92.113925 11.61533 12.24113-.15923 23.27821-3.21725 34.37737-8.13333 75.83492-33.5889 151.83041-66.82217 227.77411-100.170055 1.18633-.520921 2.37299-1.041233 3.26963-2.718215-64.11603 9.89441-128.23209 19.78881-192.34812 29.68322-.0715.34982-.14313.6996-.21471 1.04942 1.7693.5299 3.605.90508 5.29601 1.61735 6.30952 2.65756 12.88536 4.89715 18.75433 8.31583 4.88476 2.84536 4.88784 6.10607 1.17073 10.35157-2.07963 2.37531-4.33323 4.78842-6.97517 6.46141-12.02768 7.6164-24.20731 14.99835-36.37709 22.3923-1.16308.70665-2.63647.91225-3.96582 1.3504-.28922-.37812-.57843-.75624-.86767-1.13436 1.06384-1.2585 2.08974-2.55087 3.19783-3.76987 6.07348-6.68115 12.44374-13.12094 18.17246-20.07942 5.25039-6.37753 4.921-8.92858-.49457-15.32353-1.93938-2.29006-3.99811-4.57678-6.38-6.37399-2.03046-1.53199-4.6025-2.35973-7.82676-3.93465v-7.28842c80.08145-12.36705 160.2945-24.754442 240.64739-37.163416 1.34336 3.047471 2.53895 5.759703 3.91425 8.879511-1.61409.798311-3.04274 1.577222-4.52827 2.22925-90.7097 39.816085-181.41862 79.633995-272.16457 119.368925-2.69614 1.18056-5.75435 1.91577-8.69665 2.12342-35.98921 2.54006-71.680342 1.38488-106.41335-9.58957-22.56796-7.13069-35.106039-15.52446-50.8799295-33.57745-.1334182 1.63853-.3159084 2.83493-.3161103 4.03133-.013133 77.69674.01404 155.3935-.051618 233.09015-.00606 7.58816 3.9498038 13.34313 8.3096388 18.81591 9.735804 12.22116 23.146596 19.09102 37.642489 24.04944 25.27989 8.64704 51.54915 11.08363 78.06204 11.3605 11.76657.12281 23.54171-.69768 35.31521-1.00673 3.57785-.0939 4.90879-1.55742 4.86619-5.22992-.17207-14.83698.0381-29.6783-.13043-44.5154-.0359-3.16535 1.05378-4.60517 3.91944-5.91087 52.09766-23.73703 104.13778-47.59796 156.53502-71.59347z"/><path fill="#323234" d="M553.27559 215.270158c6.03368-2.78131 11.72347-5.40924 18.15582-8.38018 0 9.95104-.00023 19.0458.00014 28.14058.00036 7.66324-.1436 15.33057.0729 22.98773.0881 3.11341-.98289 4.67038-3.80153 6.03302-46.50801 22.48398-92.95885 45.08591-139.41901 67.66852-44.66011 21.70771-89.31604 43.42398-133.97547 65.13303-1.00701.48953-2.03448.93716-3.55517 1.63504-.0891-1.9108-.21191-3.33191-.21301-4.75308-.0138-17.49216.0782-34.98514-.0863-52.47577-.0321-3.42056.85567-5.26908 4.15338-6.78421 73.13226-33.60105 146.20348-67.33454 219.28615-101.04321 13.01302-6.00211 26.02545-12.00541 39.38215-18.16147zm-141.68503 151.52667c53.25212-24.55179 106.1607-48.94513 159.61249-73.5889.095 2.11847.21285 3.54163.21437 4.96491.016 15.32663-.0746 30.65417.09 45.97906.0332 3.10358-.94718 4.72281-3.75139 6.08133-63.58145 30.80283-127.12058 61.69281-190.66288 92.5762-27.12835 13.18512-54.24497 26.39426-81.37065 39.58481-1.46415.71198-2.96268 1.35339-5.18446 2.36383 0-2.62262-.00056-4.70123.0001-6.77978.005-16.82596.15373-33.65399-.0924-50.47629-.0557-3.80557 1.26278-5.47989 4.57461-6.99661 38.78294-17.76151 77.49559-35.676 116.57026-53.70856zm-148.94393-177.49083c-3.81225 5.88606-7.1654 11.56522-6.55969 19.95396 1.17581-1.88331 1.81079-2.79559 2.33951-3.76574 2.06497-3.78913 3.72204-7.86313 6.20581-11.35045 10.10193-14.18349 29.33404-14.43215 40.06634-.70549 16.90961 21.62744 10.34116 53.88904-13.95605 66.26278-17.03427 8.67493-35.11469 11.27009-53.77518 5.7577-18.14259-5.35944-29.3939-19.28657-30.99386-38.1045-1.09333-12.85907.23857-25.41046 7.26207-36.58084 9.29587-14.78445 22.84666-21.26443 40.29579-19.29278 1.15115.13005 2.47955.14239 3.3854.73205 3.26835 2.12758 6.96735 3.98377 9.43744 6.8586 3.97135 4.62205-2.04129 6.67892-3.70758 10.23471z"/><path fill="#363638" d="M167.1253 237.329238c-3.2151-9.59052-1.46841-17.54453 6.41948-23.55612 6.34461-4.83542 12.87709-9.4363 19.49484-13.89074 1.25335-.84364 3.29769-.51211 4.97704-.72282-.47624 1.6154-.58388 3.48573-1.49371 4.80125-3.5898 5.19048-7.6758 10.04763-11.11518 15.32961-3.91598 6.01395-4.82576 12.71841-2.6799 19.64624 2.70531 8.73386 5.64404 17.39661 8.25223 26.15842.54764 1.83972.0968 3.97668.10599 5.97665-1.74079-.92599-4.18557-1.4028-5.1091-2.85019-6.41886-10.06-12.52187-20.32147-18.85169-30.8923zm84.05542 60.44775c-8.96924 4.17792-16.1438 1.99185-22.37517-4.7926-8.57875-9.34021-14.38206-20.35089-19.3124-31.87878-.42898-1.003.0854-2.40943.16157-3.62848 1.28072.42859 2.94348.48516 3.78101 1.34533 6.0392 6.20233 12.00418 12.48328 17.81407 18.901 8.26002 9.12424 17.7368 10.969 28.74318 5.42753 3.4144-1.71909 6.92117-3.31449 10.52502-4.56476 1.25464-.43524 2.92938.34045 4.41226.56311-.49804 1.27649-.61999 3.08981-1.55392 3.74423-7.19138 5.03882-14.54025 9.85288-22.19562 14.88342z"/><path fill="#38383a" d="M295.05966 159.666368c5.2742-5.5643 10.2962-10.87932 15.6575-16.55344-8.16687-10.84482-16.74612-22.23726-25.48984-33.84804 2.86218-3.42749 5.58206-6.68457 8.75128-10.47976 9.29898 15.27221 18.26487 29.99742 27.5875 45.30847-14.41342 11.37631-28.72635 22.67331-43.03925 33.9703-.11914-.17939-.23831-.35881-.35745-.53822 5.54602-5.87 11.09204-11.74001 16.89026-17.85931z"/></svg>